<svg xmlns="http://www.w3.org/2000/svg" viewBox="0 0 500 500"><g id="freepik--background-complete--inject-31"><rect x="416.78" y="398.49" width="33.12" height="0.25" style="fill:#ebebeb"></rect><rect x="322.53" y="401.21" width="8.69" height="0.25" style="fill:#ebebeb"></rect><rect x="396.59" y="389.21" width="19.19" height="0.25" style="fill:#ebebeb"></rect><rect x="52.46" y="390.89" width="43.19" height="0.25" style="fill:#ebebeb"></rect><rect x="104.56" y="390.89" width="6.33" height="0.25" style="fill:#ebebeb"></rect><rect x="131.47" y="395.11" width="93.68" height="0.25" style="fill:#ebebeb"></rect><path d="M238.4,337.8H45.3a5.71,5.71,0,0,1-5.71-5.71V60.66A5.71,5.71,0,0,1,45.3,55H238.4a5.71,5.71,0,0,1,5.71,5.71V332.09A5.71,5.71,0,0,1,238.4,337.8ZM45.3,55.2a5.47,5.47,0,0,0-5.46,5.46V332.09a5.47,5.47,0,0,0,5.46,5.46H238.4a5.47,5.47,0,0,0,5.46-5.46V60.66a5.47,5.47,0,0,0-5.46-5.46Z" style="fill:#ebebeb"></path><path d="M454.7,337.8H261.6a5.71,5.71,0,0,1-5.71-5.71V60.66A5.71,5.71,0,0,1,261.6,55H454.7a5.71,5.71,0,0,1,5.71,5.71V332.09A5.71,5.71,0,0,1,454.7,337.8ZM261.6,55.2a5.47,5.47,0,0,0-5.46,5.46V332.09a5.47,5.47,0,0,0,5.46,5.46H454.7a5.47,5.47,0,0,0,5.46-5.46V60.66a5.47,5.47,0,0,0-5.46-5.46Z" style="fill:#ebebeb"></path><rect y="382.4" width="500" height="0.25" style="fill:#ebebeb"></rect><path d="M364.82,330.64S359,289.55,331.35,227.87c0,0,26.12,35.78,37.23,102.38Z" style="fill:#e0e0e0"></path><path d="M363.65,317.35s-11.9-20-24-9.56C339.61,307.79,352.43,303.9,363.65,317.35Z" style="fill:#e0e0e0"></path><path d="M361.21,307.36s-9.3-24.09-29.06-17.44C332.15,289.92,352.25,292.45,361.21,307.36Z" style="fill:#e0e0e0"></path><path d="M357.1,292.75a39.45,39.45,0,0,0-29.22-17S343,267,356.81,290Z" style="fill:#e0e0e0"></path><path d="M352.45,278.8S342.9,264,327.78,263.11c0,0,13.74-6.63,24.36,12.72Z" style="fill:#e0e0e0"></path><path d="M346.5,262s-7.28-10.27-18.09-10.15c0,0,11.52-4.09,17.88,8.17Z" style="fill:#e0e0e0"></path><path d="M342.41,252.51s-5.22-13.69-16-13.58c0,0,9.22-3,15.58,9.21Z" style="fill:#e0e0e0"></path><path d="M364.79,321.1s-1.59-23.25,14.36-21.52C379.15,299.58,366.38,303.66,364.79,321.1Z" style="fill:#e0e0e0"></path><path d="M361.13,311.49s-6-25.11,14-30.86C375.14,280.63,360,294.14,361.13,311.49Z" style="fill:#e0e0e0"></path><path d="M356.49,292.94a39.44,39.44,0,0,1,14.38-30.6s-17.43,1.37-15.72,28.16Z" style="fill:#e0e0e0"></path><path d="M353.73,277s-.57-17.64,11.39-26.92c0,0-15.08,2.35-12.83,24.3Z" style="fill:#e0e0e0"></path><path d="M349,264.14s.15-12.58,9.12-18.63c0,0-11.8,3.19-10.08,16.89Z" style="fill:#e0e0e0"></path><path d="M344.08,252.38s-3.48-14.23,5.48-20.28c0,0-9.31,2.74-7.59,16.44Z" style="fill:#e0e0e0"></path><path d="M383.09,330.24s7.15-37.35,35.11-92.59c0,0-25.46,31.6-38.53,92.07Z" style="fill:#ebebeb"></path><path d="M384.75,318.13s11.75-17.82,22.41-7.7C407.16,310.43,395.59,306.3,384.75,318.13Z" style="fill:#ebebeb"></path><path d="M387.41,309.09s9.57-21.64,27.36-14.69C414.77,294.4,396.26,295.84,387.41,309.09Z" style="fill:#ebebeb"></path><path d="M391.81,295.9a36.13,36.13,0,0,1,27.49-14.3s-13.47-8.7-27.1,11.78Z" style="fill:#ebebeb"></path><path d="M396.68,283.34s9.38-13.17,23.26-13.28c0,0-12.29-6.67-22.85,10.57Z" style="fill:#ebebeb"></path><path d="M402.85,268.2s7.11-9.08,17-8.5c0,0-10.37-4.24-16.72,6.7Z" style="fill:#ebebeb"></path><path d="M407,259.71s5.37-12.3,15.26-11.72c0,0-8.31-3.19-14.66,7.75Z" style="fill:#ebebeb"></path><path d="M383.53,321.51s2.47-21.21-12.2-20.32C371.33,301.19,382.84,305.48,383.53,321.51Z" style="fill:#ebebeb"></path><path d="M387.31,312.88s6.61-22.72-11.48-28.85C375.83,284,389.07,297,387.31,312.88Z" style="fill:#ebebeb"></path><path d="M392.36,296.1a36.13,36.13,0,0,0-11.83-28.63s15.9,2,13.16,26.45Z" style="fill:#ebebeb"></path><path d="M395.58,281.62s1.29-16.12-9.25-25.14c0,0,13.7,2.81,10.68,22.8Z" style="fill:#ebebeb"></path><path d="M400.46,270.07s.41-11.52-7.53-17.44c0,0,10.66,3.42,8.49,15.88Z" style="fill:#ebebeb"></path><path d="M405.49,259.52s3.8-12.87-4.14-18.79c0,0,8.41,2.9,6.23,15.37Z" style="fill:#ebebeb"></path><path d="M372.35,330.23s4.2-41.29-7.78-107.8c0,0,16.75,41,11.52,108.32Z" style="fill:#f0f0f0"></path><path d="M374.41,317.05s-6.73-22.31-21-15.06C353.37,302,366.76,301.29,374.41,317.05Z" style="fill:#f0f0f0"></path><path d="M374.44,306.77s-3.24-25.62-24-23.92C350.43,282.85,369.33,290.14,374.44,306.77Z" style="fill:#f0f0f0"></path><path d="M374,291.6a39.45,39.45,0,0,0-24.27-23.55s16.8-4.88,24.66,20.79Z" style="fill:#f0f0f0"></path><path d="M372.8,276.94s-5.7-16.71-20.17-21.16c0,0,14.93-3.13,20.59,18.2Z" style="fill:#f0f0f0"></path><path d="M371.07,259.18S366.48,247.46,356,245c0,0,12.16-1.2,15.39,12.23Z" style="fill:#f0f0f0"></path><path d="M369.38,249s-1.77-14.54-12.3-17c0,0,9.69-.73,12.92,12.69Z" style="fill:#f0f0f0"></path><path d="M374.62,321s4-22.94,19.11-17.43C393.73,303.53,380.35,304.42,374.62,321Z" style="fill:#f0f0f0"></path><path d="M373.37,310.76s.19-25.83,21-26.59C394.39,284.17,376.48,293.65,373.37,310.76Z" style="fill:#f0f0f0"></path><path d="M373.33,291.64a39.44,39.44,0,0,1,21.31-26.25s-17.25-2.87-22,23.55Z" style="fill:#f0f0f0"></path><path d="M374.48,275.48s3.69-17.26,17.54-23.39c0,0-15.2-1.35-18.3,20.5Z" style="fill:#f0f0f0"></path><path d="M373,261.89s3.17-12.18,13.33-15.9c0,0-12.22.26-13.84,14Z" style="fill:#f0f0f0"></path><path d="M371,249.28s.05-14.65,10.2-18.36c0,0-9.7.41-11.32,14.12Z" style="fill:#f0f0f0"></path><path d="M345.89,327.77l8.19,48a8.68,8.68,0,0,0,8.56,7.23h23a8.69,8.69,0,0,0,8.57-7.23l8.19-48Z" style="fill:#f0f0f0"></path><polygon points="400.19 340.9 401.11 335.49 347.21 335.49 348.13 340.9 400.19 340.9" style="fill:#e0e0e0"></polygon><rect x="100.78" y="190.86" width="2" height="61.13" style="fill:#f0f0f0"></rect><rect x="100.78" y="245.54" width="2" height="6.45" style="fill:#e0e0e0"></rect><rect x="86.78" y="249.53" width="30" height="4.92" style="fill:#f0f0f0"></rect><path d="M103.79,190.86a2,2,0,1,1-2-2A2,2,0,0,1,103.79,190.86Z" style="fill:#e0e0e0"></path><path d="M101.78,192.87s7.84,2,8,8.67,7.34,6.5,7.84,14.33,3.83,10.67,3.83,10.67V243s-8.67,0-8.67-8.83-6-7-7.33-14.84-3.67-7-3.67-7Z" style="fill:#e0e0e0"></path><rect x="135.45" y="190.86" width="2" height="61.13" style="fill:#f0f0f0"></rect><rect x="135.45" y="245.54" width="2" height="6.45" style="fill:#e0e0e0"></rect><rect x="121.45" y="249.53" width="30" height="4.92" style="fill:#f0f0f0"></rect><path d="M138.46,190.86a2,2,0,1,1-2-2A2,2,0,0,1,138.46,190.86Z" style="fill:#e0e0e0"></path><path d="M136.45,192.87s7.83,2,8,8.67,7.33,6.5,7.83,14.33,3.84,10.67,3.84,10.67V243s-8.67,0-8.67-8.83-6-7-7.33-14.84-3.67-7-3.67-7Z" style="fill:#f0f0f0"></path><rect x="170.12" y="190.86" width="2" height="61.13" style="fill:#f0f0f0"></rect><rect x="170.12" y="245.54" width="2" height="6.45" style="fill:#e0e0e0"></rect><rect x="156.12" y="249.53" width="30" height="4.92" style="fill:#f0f0f0"></rect><circle cx="171.12" cy="190.86" r="2" style="fill:#e0e0e0"></circle><path d="M171.12,192.87s7.83,2,8,8.67,7.33,6.5,7.83,14.33,3.83,10.67,3.83,10.67V243s-8.66,0-8.66-8.83-6-7-7.34-14.84-3.66-7-3.66-7Z" style="fill:#e0e0e0"></path><rect x="72.62" y="254.14" width="55.26" height="128.87" style="fill:#e6e6e6"></rect><rect x="115.82" y="254.14" width="115.43" height="128.87" style="fill:#f5f5f5"></rect><path d="M171.53,376.62H122.72V286.68a24.4,24.4,0,0,1,24.4-24.4h0a24.4,24.4,0,0,1,24.41,24.4Z" style="fill:#ebebeb"></path><path d="M201.34,262.28h0a24.41,24.41,0,0,1,24.41,24.41v89.93a0,0,0,0,1,0,0H176.94a0,0,0,0,1,0,0V286.68A24.41,24.41,0,0,1,201.34,262.28Z" style="fill:#ebebeb"></path><path d="M166.86,318.58a4.85,4.85,0,1,1-4.85-4.85A4.85,4.85,0,0,1,166.86,318.58Z" style="fill:#e0e0e0"></path><circle cx="186.99" cy="318.58" r="4.84" style="fill:#e0e0e0"></circle><path d="M369.07,199.89a15.28,15.28,0,0,1-7.39,2.29,10.39,10.39,0,0,0,12.36.71,26.91,26.91,0,1,0-5-3ZM385.38,202a23.51,23.51,0,1,1,23.51-23.51A23.51,23.51,0,0,1,385.38,202Z" style="fill:#ebebeb"></path><polygon points="385.38 164.21 381.83 175.12 370.36 175.12 379.64 181.86 376.1 192.77 385.38 186.03 394.66 192.77 391.11 181.86 400.39 175.12 388.92 175.12 385.38 164.21" style="fill:#f0f0f0"></polygon><path d="M327.14,130.14a12.15,12.15,0,0,1-5.91,1.83,8.3,8.3,0,0,0,9.88.57,21.55,21.55,0,1,0-4-2.4Zm13,1.69A18.8,18.8,0,1,1,359,113,18.8,18.8,0,0,1,340.17,131.83Z" style="fill:#ebebeb"></path><path d="M334.72,106.08A7.88,7.88,0,1,1,344.14,117a7.5,7.5,0,0,0-4.14,3.29l-.5.81-5-2.35.31-1a7.61,7.61,0,0,0-.19-5.32A7.86,7.86,0,0,1,334.72,106.08Z" style="fill:#e0e0e0"></path><path d="M334.6,121.58l2.61,1.22a1.45,1.45,0,0,0,1.92-.7h0l-5.23-2.44h0A1.45,1.45,0,0,0,334.6,121.58Z" style="fill:#e0e0e0"></path><path d="M334.45,123.47l1.41.66a1,1,0,0,0,1.33-.49h0l-3.22-1.5h0A1,1,0,0,0,334.45,123.47Z" style="fill:#e0e0e0"></path></g><g id="freepik--Shadow--inject-31"><ellipse id="freepik--path--inject-31" cx="250" cy="415.69" rx="193.89" ry="11.32" style="fill:#f5f5f5"></ellipse></g><g id="freepik--Lectern--inject-31"><path d="M303.87,246.69h-1V221.56a4.74,4.74,0,0,0-1.39-3.36L289,205.75l.7-.71,12.45,12.45a5.71,5.71,0,0,1,1.69,4.07Z" style="fill:#263238"></path><path d="M292,210.82l-2.6-2.6a2,2,0,0,1,0-2.83h0a2,2,0,0,1,2.83,0l2.59,2.6a2,2,0,0,1,0,2.83h0A2,2,0,0,1,292,210.82Z" style="fill:#263238"></path><path d="M316,246.69h-1V226.27a13,13,0,0,0-2.21-7.28L296,193.82l.83-.55,16.81,25.16a14,14,0,0,1,2.38,7.84Z" style="fill:#263238"></path><path d="M299.52,201.79l-3.65-5.47a2,2,0,0,1,.55-2.78h0a2,2,0,0,1,2.78.56l3.65,5.46a2,2,0,0,1-.55,2.78h0A2,2,0,0,1,299.52,201.79Z" style="fill:#263238"></path><rect x="298.4" y="199" width="4" height="1" transform="translate(-60.21 200.61) rotate(-33.77)" style="fill:#407BFF"></rect><polygon points="314.83 259.66 325.05 259.66 325.05 243.4 275.05 243.4 275.05 255.66 265.17 255.66 265.17 259.66 275.38 259.66 279.46 265.02 279.46 407.63 265.17 407.63 265.17 415.76 325.05 415.76 325.05 407.63 310.76 407.63 310.76 265.02 314.83 259.66" style="fill:#263238"></polygon><polygon points="328.71 259.66 338.92 259.66 338.92 243.4 279.05 243.4 279.05 259.66 289.26 259.66 293.33 265.02 293.33 407.63 279.05 407.63 279.05 415.76 338.92 415.76 338.92 407.63 324.63 407.63 324.63 265.02 328.71 259.66" style="fill:#407BFF"></polygon><circle cx="308.98" cy="259.66" r="9.95" transform="translate(-14.72 500.72) rotate(-76.72)" style="fill:#fff;opacity:0.7000000000000001"></circle></g><g id="freepik--Icon--inject-31"><path d="M333.37,149.46a21.32,21.32,0,0,0-27.9,29.26,12.16,12.16,0,0,1-6.11-.82,8.24,8.24,0,0,0,8.67,4.65,21.34,21.34,0,1,0,25.34-33.09Zm7.88,27.23a18.65,18.65,0,1,1-9-24.79A18.66,18.66,0,0,1,341.25,176.69Z" style="fill:#407BFF"></path><path d="M333.37,149.46a21.32,21.32,0,0,0-27.9,29.26,12.16,12.16,0,0,1-6.11-.82,8.24,8.24,0,0,0,8.67,4.65,21.34,21.34,0,1,0,25.34-33.09Zm7.88,27.23a18.65,18.65,0,1,1-9-24.79A18.66,18.66,0,0,1,341.25,176.69Z" style="fill:#fff;opacity:0.5"></path><polygon points="313.51 166.35 312.15 159.85 319.37 163.21 313.51 166.35" style="fill:#263238"></polygon><polygon points="335.43 170.71 336.79 177.21 329.58 173.85 335.43 170.71" style="fill:#407BFF"></polygon><path d="M331.48,174.74a9.27,9.27,0,0,1-16.13-8.19L312,168.37a12.39,12.39,0,0,0,22.42,7.72Z" style="fill:#407BFF"></path><path d="M329.59,157.55A12.42,12.42,0,0,0,314.68,161l2.94,1.37a9.28,9.28,0,0,1,15.83,8.19l3.29-1.84A12.41,12.41,0,0,0,329.59,157.55Z" style="fill:#263238"></path></g><g id="freepik--People--inject-31"><path d="M271.2,91.84a32.29,32.29,0,0,0-19.57,58,18.39,18.39,0,0,1-8.88,2.76,12.48,12.48,0,0,0,14.84.84A32.29,32.29,0,1,0,271.2,91.84Zm0,60.52a28.23,28.23,0,1,1,28.22-28.23A28.22,28.22,0,0,1,271.2,152.36Z" style="fill:#407BFF"></path><path d="M257.75,114.5c0,1.09-.45,2-1.54,2s-1.54-.89-1.54-2,.44-2,1.54-2S257.75,113.4,257.75,114.5Z" style="fill:#407BFF"></path><path d="M258.51,116.73H253.9a1.76,1.76,0,0,0-1.67,1.22l-2.66,8.31a.65.65,0,0,0,.4.81l.1,0a.65.65,0,0,0,.82-.38l2.29-5.8s.1,4.45.12,5.93c0,3,.11,12,.11,12a.65.65,0,0,0,.65.65h0a.64.64,0,0,0,.65-.59l1.23-12h.54l1.23,12a.64.64,0,0,0,.65.59h0a.65.65,0,0,0,.65-.65s.07-9,.11-12c0-1.48.11-5.93.11-5.93l2.3,5.8a.65.65,0,0,0,.82.38l.09,0a.64.64,0,0,0,.41-.81L260.18,118A1.74,1.74,0,0,0,258.51,116.73Z" style="fill:#407BFF"></path><path d="M288,114.5c0,1.09-.44,2-1.54,2s-1.54-.89-1.54-2,.44-2,1.54-2S288,113.4,288,114.5Z" style="fill:#407BFF"></path><path d="M288.75,116.73h-4.62a1.76,1.76,0,0,0-1.67,1.22l-2.66,8.31a.65.65,0,0,0,.4.81l.1,0a.65.65,0,0,0,.82-.38l2.29-5.8s.1,4.45.12,5.93c0,3,.11,12,.11,12a.65.65,0,0,0,.65.65h0a.64.64,0,0,0,.65-.59l1.23-12h.54l1.23,12a.64.64,0,0,0,.65.59h0a.65.65,0,0,0,.65-.65s.07-9,.11-12c0-1.48.11-5.93.11-5.93l2.3,5.8a.65.65,0,0,0,.82.38l.1,0a.65.65,0,0,0,.4-.81L290.42,118A1.76,1.76,0,0,0,288.75,116.73Z" style="fill:#407BFF"></path><g style="opacity:0.4"><path d="M257.69,114.5c0,1.09-.45,2-1.54,2s-1.54-.89-1.54-2,.44-2,1.54-2S257.69,113.4,257.69,114.5Z" style="fill:#fff"></path><path d="M258.45,116.73h-4.61a1.75,1.75,0,0,0-1.67,1.22l-2.67,8.31a.64.64,0,0,0,.41.81l.09,0a.67.67,0,0,0,.83-.38l2.29-5.8s.1,4.45.12,5.93c0,3,.1,12,.1,12a.66.66,0,0,0,.66.65h0a.66.66,0,0,0,.65-.59l1.22-12h.55l1.22,12a.66.66,0,0,0,.65.59h0a.66.66,0,0,0,.66-.65s.06-9,.1-12l.12-5.93,2.29,5.8a.67.67,0,0,0,.83.38l.09,0a.64.64,0,0,0,.41-.81L260.12,118A1.75,1.75,0,0,0,258.45,116.73Z" style="fill:#fff"></path><path d="M287.92,114.5c0,1.09-.45,2-1.54,2s-1.54-.89-1.54-2,.44-2,1.54-2S287.92,113.4,287.92,114.5Z" style="fill:#fff"></path><path d="M288.68,116.73h-4.61A1.75,1.75,0,0,0,282.4,118l-2.67,8.31a.66.66,0,0,0,.41.81l.09,0a.66.66,0,0,0,.83-.38l2.29-5.8s.1,4.45.12,5.93c0,3,.1,12,.1,12a.66.66,0,0,0,.66.65h0a.66.66,0,0,0,.65-.59l1.23-12h.54l1.22,12a.66.66,0,0,0,.65.59h0a.66.66,0,0,0,.66-.65s.06-9,.11-12c0-1.48.11-5.93.11-5.93l2.29,5.8a.67.67,0,0,0,.83.38l.09,0a.64.64,0,0,0,.41-.81L290.35,118A1.75,1.75,0,0,0,288.68,116.73Z" style="fill:#fff"></path></g><path d="M273.54,109c0,1.62-.66,2.94-2.28,2.94S269,110.6,269,109s.66-2.93,2.28-2.93S273.54,107.36,273.54,109Z" style="fill:#407BFF"></path><path d="M274.67,112.28h-6.82a2.59,2.59,0,0,0-2.47,1.8l-3.95,12.3a1,1,0,0,0,.6,1.21l.14,0a1,1,0,0,0,1.22-.56l3.39-8.59s.14,6.59.18,8.79c.06,4.43.15,17.71.15,17.71a1,1,0,0,0,1,1h0a1,1,0,0,0,1-.87l1.82-17.8h.8l1.82,17.8a1,1,0,0,0,1,.87h0a1,1,0,0,0,1-1s.09-13.28.16-17.71c0-2.2.17-8.79.17-8.79l3.39,8.59a1,1,0,0,0,1.22.56l.14,0a1,1,0,0,0,.6-1.21l-3.95-12.3A2.59,2.59,0,0,0,274.67,112.28Z" style="fill:#407BFF"></path></g><g id="freepik--World--inject-31"><path d="M158.6,164a18.33,18.33,0,0,0,11.7,4.91,12.46,12.46,0,0,1-16.8-.75c-.12-.12-.22-.24-.33-.36Z" style="fill:#407BFF"></path><path d="M109.55,140.42a32.3,32.3,0,1,0,32.3-32.3A32.3,32.3,0,0,0,109.55,140.42Zm4.08,0a28.22,28.22,0,1,1,28.22,28.22A28.22,28.22,0,0,1,113.63,140.42Z" style="fill:#407BFF"></path><path d="M127.58,149.33c.75,1.32-.32,4.56-.07,6,.3,1.79,1,5.78,2.47,6.82.34.24,1.4.32,1.66,0,.6-.73-.87-2.75-.77-3.69.32-2.75,3.86-7.38,4.65-10,.32-1,1.22-3.4.64-4.33-.29-.47-1.61-.42-2.1-.68-1.33-.72-3.3-3.31-4.73-3.8-1-.35-3.29.5-4.25,0-.57-.27-1.61-1.36-1.57-2,0-.38,1.1-.68,1.09-1.06s-.78-.88-1.14-1c-.83-.19-2.47,1.07-3.28.83a2,2,0,0,1-1.11-1.22,4,4,0,0,1,1.77-2.65c.7-.36,2.39.29,3.15.07,2.5-.75,8.21-3.31,8.61-5.88.12-.74-.93-2.16-1.58-2.52-.8-.44-3,.65-3.62,0a2.94,2.94,0,0,1,.09-2.66c.53-.71,2.46-1.19,3.34-1.13.39,0,1,.66,1.4.69.55,0,1.94-.16,2.09-.69s-1.08-1.75-1.7-2c-1-.33-2.82,0-4.61.41a26.34,26.34,0,0,0-12.13,17.32,12.29,12.29,0,0,0,2.56,1.53c.53.15,1.7,0,2.16.3,1,.64,2.78,2.84,2.7,4.06,0,.61-1.44,1.24-1.62,1.82a3.38,3.38,0,0,0,.26,2.06C122.84,147.42,126.78,147.92,127.58,149.33Z" style="fill:#407BFF"></path><path d="M157.53,120.55c-1.82.76-3.87,1.44-4.95,1.21-.6-.14-1.18-1.59-1.79-1.68-1.41-.21-4.58,1.22-5.12,2.54-.14.34.57,1,.48,1.39-.33,1.32-4.31,2.39-4,3.71.25,1.07,3.11,1.13,4.2,1.22s3.62-.93,4.77-.57,3.25,1.84,3.34,2.95c.08.88-1.4,2.4-2.21,2.76-1.09.48-3.61,0-4.76-.29-1-.26-2.69-1.76-3.72-1.77a6.41,6.41,0,0,0-3.36,1.54,8,8,0,0,0-1.64,4c0,1.34,1,4.19,2.1,4.91s4.57-1,5.69-.16c2.31,1.82.26,9.56,2.47,11.51a3,3,0,0,0,2.46.2c3.14-1.77,7.41-9.43,6.42-12.89-.22-.77-2.18-1.09-2.71-1.68s-2.14-2.63-1.44-3.13,1.61,2.2,2.44,2.32,3-.76,3.14-1.63-2.74-2-2.61-3c.06-.43,1-.9,1.47-1a6.5,6.5,0,0,1,4,1.37c1.35,1.39,1.37,6.8,3.3,7,.72.08,1.53-.58,2.31-1.53A26.22,26.22,0,0,0,157.53,120.55Z" style="fill:#407BFF"></path><path d="M127.58,149.33c.75,1.32-.32,4.56-.07,6,.3,1.79,1,5.78,2.47,6.82.34.24,1.4.32,1.66,0,.6-.73-.87-2.75-.77-3.69.32-2.75,3.86-7.38,4.65-10,.32-1,1.22-3.4.64-4.33-.29-.47-1.61-.42-2.1-.68-1.33-.72-3.3-3.31-4.73-3.8-1-.35-3.29.5-4.25,0-.57-.27-1.61-1.36-1.57-2,0-.38,1.1-.68,1.09-1.06s-.78-.88-1.14-1c-.83-.19-2.47,1.07-3.28.83a2,2,0,0,1-1.11-1.22,4,4,0,0,1,1.77-2.65c.7-.36,2.39.29,3.15.07,2.5-.75,8.21-3.31,8.61-5.88.12-.74-.93-2.16-1.58-2.52-.8-.44-3,.65-3.62,0a2.94,2.94,0,0,1,.09-2.66c.53-.71,2.46-1.19,3.34-1.13.39,0,1,.66,1.4.69.55,0,1.94-.16,2.09-.69s-1.08-1.75-1.7-2c-1-.33-2.82,0-4.61.41a26.34,26.34,0,0,0-12.13,17.32,12.29,12.29,0,0,0,2.56,1.53c.53.15,1.7,0,2.16.3,1,.64,2.78,2.84,2.7,4.06,0,.61-1.44,1.24-1.62,1.82a3.38,3.38,0,0,0,.26,2.06C122.84,147.42,126.78,147.92,127.58,149.33Z" style="fill:#fff;opacity:0.5"></path><path d="M157.53,120.55c-1.82.76-3.87,1.44-4.95,1.21-.6-.14-1.18-1.59-1.79-1.68-1.41-.21-4.58,1.22-5.12,2.54-.14.34.57,1,.48,1.39-.33,1.32-4.31,2.39-4,3.71.25,1.07,3.11,1.13,4.2,1.22s3.62-.93,4.77-.57,3.25,1.84,3.34,2.95c.08.88-1.4,2.4-2.21,2.76-1.09.48-3.61,0-4.76-.29-1-.26-2.69-1.76-3.72-1.77a6.41,6.41,0,0,0-3.36,1.54,8,8,0,0,0-1.64,4c0,1.34,1,4.19,2.1,4.91s4.57-1,5.69-.16c2.31,1.82.26,9.56,2.47,11.51a3,3,0,0,0,2.46.2c3.14-1.77,7.41-9.43,6.42-12.89-.22-.77-2.18-1.09-2.71-1.68s-2.14-2.63-1.44-3.13,1.61,2.2,2.44,2.32,3-.76,3.14-1.63-2.74-2-2.61-3c.06-.43,1-.9,1.47-1a6.5,6.5,0,0,1,4,1.37c1.35,1.39,1.37,6.8,3.3,7,.72.08,1.53-.58,2.31-1.53A26.22,26.22,0,0,0,157.53,120.55Z" style="fill:#fff;opacity:0.5"></path></g><g id="freepik--Character--inject-31"><path d="M193,126.1a7.33,7.33,0,1,1-8.23,12.13c-3.35-2.28-6.65-8.48-4.38-11.83S189.68,123.82,193,126.1Z" style="fill:#263238"></path><path d="M191.89,137.64s-2.56-4.84,2.81-5.83l-.31,2.21-1.06,3.21Z" style="fill:#407BFF"></path><path d="M270.47,175.64l-2.34,1.52a3.25,3.25,0,0,0-1.47,2.57l-.21,4.88a6,6,0,0,0,2.32,5l1,.74c4-2.25,6.75-7.65,6.75-7.65l.94-1.46a2.69,2.69,0,0,0-.71-3.76l-2.86-1.91A3.09,3.09,0,0,0,270.47,175.64Z" style="fill:#ffb573"></path><path d="M229,180.68c1.26,1.88,2.64,3.95,4,5.86s2.84,3.84,4.31,5.65a54.89,54.89,0,0,0,4.52,4.95,21.6,21.6,0,0,0,2.23,1.82,7.41,7.41,0,0,0,1.46.82s0,0,0,0h-.1l-.1,0s0,0,.15,0a5.05,5.05,0,0,0,1-.27,17.41,17.41,0,0,0,2.71-1.31,65.19,65.19,0,0,0,5.82-3.87c3.88-2.85,7.78-6,11.58-9.11l.06-.05a2.81,2.81,0,0,1,4,3.85,100.26,100.26,0,0,1-10.17,11.77,56.15,56.15,0,0,1-6.13,5.3,27.35,27.35,0,0,1-3.85,2.4,14.18,14.18,0,0,1-2.57,1,12,12,0,0,1-1.72.33,8.36,8.36,0,0,1-1,.05l-.58,0-.46,0a14.73,14.73,0,0,1-5.51-1.93,26.5,26.5,0,0,1-3.82-2.67,51,51,0,0,1-6-5.84c-1.8-2-3.44-4.09-5-6.21s-3-4.24-4.44-6.61a5.63,5.63,0,0,1,9.5-6.05Z" style="fill:#ffb573"></path><path d="M238.94,192.33c-8.09-11.36-9.21-18.64-18.41-18.75-9.69,10.66,9.32,29,9.32,29s7.64,8.12,15.56,8.14c8.84,0,24.34-19.59,24.34-19.59l-4.67-5.08s-11.12,9-17.5,12.08C243.76,200,240.45,194.45,238.94,192.33Z" style="fill:#263238"></path><path d="M230.91,187l-4.58-5.5-1.13,1.24-2.12,3.51-.55,7.38a58.41,58.41,0,0,0,7.32,9,34.76,34.76,0,0,0,6.6,5.22C234.17,197.94,230.91,187,230.91,187Z" style="opacity:0.4"></path><path d="M213.73,171.09a45.2,45.2,0,0,0-13.8-.31c-1.23,2.38-.57,6-.57,6l17.22-.47A5.14,5.14,0,0,0,213.73,171.09Z" style="fill:#407BFF"></path><path d="M228.82,230.67s6.28,48.83,5.73,79.84c2.18,29.08,4,90.12,7.31,96.71-.11,1.49-5.3,1.81-6.69.92,0,0-21.74-50.41-18.82-97.63-20-49.25-18.78-79.84-18.78-79.84Z" style="fill:#ffb573"></path><path d="M254.34,412.54c-6.66,1.14-7.41.83-11.2,1.35-3.25.45-3.51,1.2-6.76,1.76-2.16.38-3.39-1.93-3.3-3.84,0-1.14.28-2.48.27-3.89a1.48,1.48,0,0,1,1.26-1.52l6.92-1.2a2.07,2.07,0,0,1,1.57.39,14.69,14.69,0,0,0,11,3.07C257.82,408.3,257,412.08,254.34,412.54Z" style="fill:#263238"></path><path d="M220.32,230.67S206,285.79,200.39,312.85c-5.95,28.42-13.77,76.19-12.12,95.07-1.59.94-4.53,1.05-7.75.05,0,0-12.74-63.44.08-93.87-5.62-67.32,12.19-83.43,12.19-83.43Z" style="fill:#ffb573"></path><path d="M196.75,415.65c-6.91,0-6.42-.1-10.31-.23-3.33-.12-4.09.29-6.76.23-2.24,0-2.31-2.18-1.8-4.64.19-.94.49-2,.76-3.4a1.65,1.65,0,0,1,1.64-1.33h8.08a1.9,1.9,0,0,1,1.52.77,11.63,11.63,0,0,0,8,4.51C201.66,412.06,199.5,415.65,196.75,415.65Z" style="fill:#263238"></path><path d="M232.17,186a151.45,151.45,0,0,1-.24,16c-.29,7,.92,26.79-4,28-3.81,2.24-23.14,1.42-35.48-.17-5.87-1.73,4.08-17.13-6.82-46-1.9-5,1.91-10.1,7.43-10.63,1.48-.14,3-.26,4.66-.33a125.59,125.59,0,0,1,16.92,0c1.84.16,3.75.37,5.57.61C226.78,174.39,232,179.78,232.17,186Z" style="fill:#407BFF"></path><path d="M232.17,186a151.45,151.45,0,0,1-.24,16c-.29,7,.92,26.79-4,28-3.81,2.24-23.14,1.42-35.48-.17-5.87-1.73,4.08-17.13-6.82-46-1.9-5,1.91-10.1,7.43-10.63,1.48-.14,3-.26,4.66-.33a125.59,125.59,0,0,1,16.92,0c1.84.16,3.75.37,5.57.61C226.78,174.39,232,179.78,232.17,186Z" style="fill:#fff;opacity:0.5"></path><path d="M198.89,153.88c1.48,5.44,3.28,15.42-.25,19.06,0,0-2.55,4.77,11.83,4.34,1.25,3,3.18,11.14,3.86,18.85,2.29-7.75,0-16.82-1-19,9.24-.79,2.23-4.18,2.23-4.18-6.18-1.45-6.36-6-5.62-10.19Z" style="fill:#ffb573"></path><path d="M203.4,157.5l6.54,5.25a17,17,0,0,0-.3,3c-2.34-.34-5.72-2.88-6.15-5.31A8.08,8.08,0,0,1,203.4,157.5Z" style="opacity:0.2"></path><path d="M194.24,143c1.65,8.79,2.17,12.54,7.18,16.76,7.55,6.34,17.92,3,18.91-6,.89-8.07-2-21.09-11-24A11.47,11.47,0,0,0,194.24,143Z" style="fill:#ffb573"></path><path d="M208.17,144.41c.11.75.58,1.32,1.06,1.29s.77-.67.67-1.41-.58-1.32-1.06-1.29S208.06,143.67,208.17,144.41Z" style="fill:#263238"></path><path d="M217.15,143.89c.11.74.58,1.31,1.06,1.28s.77-.67.67-1.41-.58-1.32-1.06-1.29S217.05,143.14,217.15,143.89Z" style="fill:#263238"></path><path d="M217.62,142.53l1.67-.64S218.6,143.35,217.62,142.53Z" style="fill:#263238"></path><path d="M214.83,145.29a21.91,21.91,0,0,0,3.28,4.56,3,3,0,0,1-2.53.69Z" style="fill:#ed893e"></path><path d="M211.79,153.59a7.13,7.13,0,0,0,1.23,0,.21.21,0,0,0,.19-.23.26.26,0,0,0-.25-.21,6.25,6.25,0,0,1-5-1.95.2.2,0,0,0-.3,0,.21.21,0,0,0,0,.3A6.49,6.49,0,0,0,211.79,153.59Z" style="fill:#263238"></path><path d="M205.66,140.42a.44.44,0,0,0,.31-.13,3.23,3.23,0,0,1,2.85-1.1.39.39,0,0,0,.48-.34.48.48,0,0,0-.38-.52,4,4,0,0,0-3.61,1.34.44.44,0,0,0,.05.62A.53.53,0,0,0,205.66,140.42Z" style="fill:#263238"></path><path d="M219.17,139.61a.4.4,0,0,0,.3-.09.44.44,0,0,0,0-.62,4.62,4.62,0,0,0-3.72-1.66.4.4,0,0,0-.35.48.47.47,0,0,0,.5.39,3.67,3.67,0,0,1,2.94,1.34A.45.45,0,0,0,219.17,139.61Z" style="fill:#263238"></path><path d="M208.64,143.06l1.67-.64S209.61,143.88,208.64,143.06Z" style="fill:#263238"></path><path d="M208.75,344l2.33-11.92L212.15,344c15.54-.22,25.43-2.58,25.43-2.58l-2.33-48.21c0-21.6-5.33-58-5.69-61.51,0,0-27.24.57-38.29.57-12.11,11.58-13.25,42.29-13.12,56.88.06,5.82.45,23.27.45,23.27l-5.27,27.5A163.45,163.45,0,0,0,208.75,344Z" style="fill:#263238"></path><path d="M208.7,308.79s-4.44-29.91,7.84-38.38C222.53,266.28,211.41,281.26,208.7,308.79Z" style="opacity:0.4"></path><path d="M213.21,198.89c-1.06-14.11-11.94-23.48-15.21-26l-.29,0c-1.61.07-3.18.19-4.66.33-5.52.53-9.33,5.59-7.43,10.63,10.9,28.86.95,44.26,6.82,46,5.91.76,13.43,1.34,20.07,1.5C213.13,224.57,214.1,210.83,213.21,198.89Z" style="fill:#263238"></path><path d="M231.93,202a151.45,151.45,0,0,0,.24-16c-.2-6.18-5.39-11.57-12-12.43l-2.15-.26c.4,2.26,1,7.75-.27,17.75-1.35,10.9-1.29,32.08-1.2,40.39,5.4,0,9.74-.43,11.34-1.37C232.85,228.79,231.64,209,231.93,202Z" style="fill:#263238"></path><path d="M213.21,198.89c-1.06-14.11-11.94-23.48-15.21-26l-.29,0-1.47.08c.08,3.11.92,10.3,7.06,8.39,0,0-2.1,3.5,2.15,7.13,2.82,2.4,6.06,8.81,7.92,12.86C213.32,200.55,213.27,199.71,213.21,198.89Z" style="opacity:0.4"></path><path d="M218.05,173.27c.4,2.26,1,7.75-.27,17.75-.34,2.75-.59,6.15-.77,9.83.8-3.86,2.59-10.3,4.94-13.21,3.25-4-.46-7.59-.46-7.59s6.21,1.34-.37-6.36c-.3-.06-.61-.12-.92-.16Z" style="opacity:0.4"></path><path d="M195.5,183.89c.62,6.39-3.44,20.4-4.68,22.85a76.52,76.52,0,0,0-1.55-10.69Z" style="opacity:0.4"></path><path d="M210.47,177.28a9,9,0,0,1-1.77-3.15s-10.3.47-8.77-3.35c-1.81,1.4-2,2.25-1.88,3.35S202.2,178.2,210.47,177.28Z" style="fill:#407BFF"></path><path d="M210.47,177.28a9,9,0,0,1-1.77-3.15s-10.3.47-8.77-3.35c-1.81,1.4-2,2.25-1.88,3.35S202.2,178.2,210.47,177.28Z" style="fill:#fff;opacity:0.5"></path><path d="M213.33,177.12a5.48,5.48,0,0,0-.15-3.25c2.75.12.74-2.55.55-2.78,1.46.51,4.62,2.49,4.59,4.55C218.31,176.79,215.84,177.12,213.33,177.12Z" style="fill:#407BFF"></path><path d="M213.33,177.12a5.48,5.48,0,0,0-.15-3.25c2.75.12.74-2.55.55-2.78,1.46.51,4.62,2.49,4.59,4.55C218.31,176.79,215.84,177.12,213.33,177.12Z" style="fill:#fff;opacity:0.5"></path><path d="M229.35,233.34a175.52,175.52,0,0,1-38.34-.08.85.85,0,0,1-.67-1.19c.32-.71.63-1.43.93-2.15a.82.82,0,0,1,.83-.5,171.4,171.4,0,0,0,36.86,0,.81.81,0,0,1,.89.75c.08.75.16,1.49.23,2.24A.84.84,0,0,1,229.35,233.34Z" style="fill:#263238"></path><path d="M229.35,233.34a175.52,175.52,0,0,1-38.34-.08.85.85,0,0,1-.67-1.19c.32-.71.63-1.43.93-2.15a.82.82,0,0,1,.83-.5,171.4,171.4,0,0,0,36.86,0,.81.81,0,0,1,.89.75c.08.75.16,1.49.23,2.24A.84.84,0,0,1,229.35,233.34Z" style="opacity:0.4"></path><path d="M197.33,148.89s2.34-.88,1.85-7,3.22-11.74,14-10.06c0,0,5.9-3.81-1.1-5.31,0,0-1.33-1.63-5.66,0,0,0-11.45-2.75-13.52,8.37,0,0-7.83,5.83.49,16.54,0,0,3.66,9.07,6.88,9S195.47,155.9,197.33,148.89Z" style="fill:#263238"></path><path d="M203.13,133.07s-2.7,2.82,0,6.76C203.13,139.83,197.42,134.6,203.13,133.07Z" style="fill:#263238"></path><path d="M212.57,131.75s3.39-.3,5.88,3.45C218.45,135.2,217.49,128.79,212.57,131.75Z" style="fill:#263238"></path><path d="M224.15,173.77S220,238,181.27,253.54A29.42,29.42,0,0,0,179.08,265S228,253,231.27,179.77A16.4,16.4,0,0,0,224.15,173.77Z" style="fill:#407BFF"></path><path d="M199,249.89l-2.12,1.56.32,1.28-1.08.8-1.34-6.07,1-.77,5.41,3.06-1.11.82Zm-.93-.56-2-1.21.56,2.28Z" style="fill:#fff"></path><path d="M205.73,245.54l-2.34-2.47.71,3.18-.43.41-3.08-.85,2.28,2.42-.89.85L198.09,245l.79-.74,4,1.1-.9-4,.79-.74,3.9,4.11Z" style="fill:#fff"></path><path d="M209.1,238.07a1.51,1.51,0,0,1,.86.36,1.32,1.32,0,0,1,.5,1.18,3,3,0,0,1-.79,1.55l-1.89,2.24-4.33-3.65,1.79-2.12a2.67,2.67,0,0,1,1.33-1,1.27,1.27,0,0,1,1.18.27,1.4,1.4,0,0,1,.43.63,1.46,1.46,0,0,1,0,.75A1.52,1.52,0,0,1,209.1,238.07Zm-4,1.32,1,.86.84-1a1.36,1.36,0,0,0,.35-.67.59.59,0,0,0-.23-.52.58.58,0,0,0-.54-.13,1.38,1.38,0,0,0-.6.46Zm4.18.5a.59.59,0,0,0-.23-.54c-.36-.3-.76-.19-1.21.35l-1,1.17,1.07.9,1-1.17A1.48,1.48,0,0,0,209.23,239.89Z" style="fill:#fff"></path><path d="M213.07,234.58l-1.49,2.16.71,1.1-.76,1.11-3.23-5.3.74-1.07,6.1,1.14-.78,1.13Zm-1-.23-2.3-.5,1.28,2Z" style="fill:#fff"></path><path d="M215.78,232.4a3.24,3.24,0,0,1-.91.64l-.64-.88a2.86,2.86,0,0,0,.81-.54,3.42,3.42,0,0,0,.64-.79,1.75,1.75,0,0,0,.27-.8.5.5,0,0,0-.25-.45.4.4,0,0,0-.37,0,1.37,1.37,0,0,0-.39.24l-.49.49a9,9,0,0,1-.79.77,1.75,1.75,0,0,1-.79.37,1.32,1.32,0,0,1-.93-.2,1.53,1.53,0,0,1-.64-.67,1.7,1.7,0,0,1-.15-1,3.21,3.21,0,0,1,.45-1.26,4.12,4.12,0,0,1,.64-.85,3,3,0,0,1,.78-.6l.66.84a3.21,3.21,0,0,0-1.17,1.14,1.48,1.48,0,0,0-.25.8.53.53,0,0,0,.27.46.46.46,0,0,0,.53-.05,5.38,5.38,0,0,0,.71-.66,7.82,7.82,0,0,1,.79-.77,1.71,1.71,0,0,1,.78-.37,1.28,1.28,0,0,1,.92.19,1.62,1.62,0,0,1,.64.68,1.78,1.78,0,0,1,.14,1,3.21,3.21,0,0,1-.45,1.26A4.61,4.61,0,0,1,215.78,232.4Z" style="fill:#fff"></path><path d="M218.4,227.65a3.07,3.07,0,0,1-.87.7l-.7-.83a3.17,3.17,0,0,0,.77-.59,3.11,3.11,0,0,0,.58-.83,1.67,1.67,0,0,0,.21-.82.48.48,0,0,0-.28-.43.43.43,0,0,0-.37,0,1.29,1.29,0,0,0-.37.27c-.12.13-.27.3-.45.53a9.63,9.63,0,0,1-.74.82,1.74,1.74,0,0,1-.75.42,1.31,1.31,0,0,1-1-.13,1.51,1.51,0,0,1-.69-.63,1.87,1.87,0,0,1-.22-1,3.51,3.51,0,0,1,.36-1.29,4.76,4.76,0,0,1,.58-.9,3.13,3.13,0,0,1,.73-.65l.72.8a3.2,3.2,0,0,0-1.08,1.22,1.49,1.49,0,0,0-.2.81.54.54,0,0,0,.31.44.46.46,0,0,0,.52-.08,4.49,4.49,0,0,0,.66-.72,9.63,9.63,0,0,1,.74-.82,1.74,1.74,0,0,1,.75-.42,1.31,1.31,0,0,1,.93.12,1.54,1.54,0,0,1,.68.63,1.82,1.82,0,0,1,.22,1,3.41,3.41,0,0,1-.36,1.29A4.62,4.62,0,0,1,218.4,227.65Z" style="fill:#fff"></path><path d="M220.81,219.38l-1,2.45.95.91-.5,1.25L216,219.54l.48-1.2,6.21-.25-.52,1.28Zm-1.08,0-2.35,0,1.68,1.64Z" style="fill:#fff"></path><path d="M217.5,215.55l.78-2.46a3.67,3.67,0,0,1,.82-1.45,2.67,2.67,0,0,1,1.28-.75,2.81,2.81,0,0,1,1.54.08,2.72,2.72,0,0,1,1.3.82,2.63,2.63,0,0,1,.62,1.35,3.58,3.58,0,0,1-.16,1.66l-.77,2.46Zm5.14-1a1.92,1.92,0,0,0,0-1.44,1.7,1.7,0,0,0-1.07-.87,1.66,1.66,0,0,0-1.37.1,1.93,1.93,0,0,0-.87,1.15l-.36,1.14,3.35,1.06Z" style="fill:#fff"></path><path d="M224.94,209.44a2.84,2.84,0,0,1-2.84.87,2.87,2.87,0,0,1-1.36-.74,2.82,2.82,0,0,1-.76-1.33,3.21,3.21,0,0,1,0-1.63,3.37,3.37,0,0,1,.74-1.46,2.9,2.9,0,0,1,1.28-.83,2.84,2.84,0,0,1,1.56,0,2.87,2.87,0,0,1,1.36.74,2.82,2.82,0,0,1,.76,1.33,3.21,3.21,0,0,1,0,1.63A3.32,3.32,0,0,1,224.94,209.44Zm-.36-2.66a1.63,1.63,0,0,0-.47-.77,2,2,0,0,0-.86-.44,2,2,0,0,0-1,0,1.69,1.69,0,0,0-.78.47,1.83,1.83,0,0,0-.43.83,1.72,1.72,0,0,0,0,.93,1.53,1.53,0,0,0,.48.77,1.79,1.79,0,0,0,.85.45,1.87,1.87,0,0,0,1,0,1.67,1.67,0,0,0,.78-.46,1.79,1.79,0,0,0,.43-.83A1.76,1.76,0,0,0,224.58,206.78Z" style="fill:#fff"></path><path d="M227.17,200.18l-1.74.8V201l-.2,1.13,1.55.27-.23,1.3-5.58-1,.43-2.42a3.16,3.16,0,0,1,.48-1.24,2,2,0,0,1,.85-.72,2,2,0,0,1,1.13-.1,2,2,0,0,1,1,.49,1.92,1.92,0,0,1,.53,1l2-.93Zm-4.33-.44a1.34,1.34,0,0,0-.41.84l-.19,1,1.95.35.18-1a1.38,1.38,0,0,0-.09-.93.91.91,0,0,0-.67-.43A.88.88,0,0,0,222.84,199.74Z" style="fill:#fff"></path><path d="M207,189.07a3.71,3.71,0,1,1-3.71-3.71A3.71,3.71,0,0,1,207,189.07Z" style="fill:#407BFF"></path><path d="M207,189.07a3.71,3.71,0,1,1-3.71-3.71A3.71,3.71,0,0,1,207,189.07Z" style="fill:#fff;opacity:0.30000000000000004"></path><path d="M206.15,191.41a3.73,3.73,0,0,0,.67-1.22h-7a3.7,3.7,0,0,0,.66,1.22Z" style="fill:#fff"></path><path d="M199.79,187.94h7a3.73,3.73,0,0,0-.67-1.22h-5.7A3.7,3.7,0,0,0,199.79,187.94Z" style="fill:#fff"></path><path d="M199.59,189.07a3.52,3.52,0,0,0,.2,1.12h7a3.43,3.43,0,0,0,0-2.25h-7A3.53,3.53,0,0,0,199.59,189.07Z" style="fill:#407BFF"></path><path d="M199.59,189.07a3.52,3.52,0,0,0,.2,1.12h7a3.43,3.43,0,0,0,0-2.25h-7A3.53,3.53,0,0,0,199.59,189.07Z" style="opacity:0.30000000000000004"></path><path d="M204.55,225.53l-.05,0c-4.14-2.54-8.33-5.11-12.35-7.7-2-1.28-4-2.63-5.79-4a25,25,0,0,1-2.44-2,11.31,11.31,0,0,1-.86-.89c-.17-.23,0-.46.11-1.2a18.38,18.38,0,0,1,.65-2.68,55.35,55.35,0,0,1,2.46-6.11c1-2.07,2-4.15,3.14-6.23s2.3-4.18,3.41-6.11l.06-.11a5.63,5.63,0,0,0-9.64-5.83c-1.46,2.27-2.65,4.45-3.87,6.74s-2.32,4.62-3.33,7.06a53.1,53.1,0,0,0-2.63,7.76,27.11,27.11,0,0,0-.74,4.57,16.37,16.37,0,0,0,.06,2.77,10.87,10.87,0,0,0,.93,3.42,10.51,10.51,0,0,0,2.08,2.86,18.34,18.34,0,0,0,1.86,1.61,38,38,0,0,0,3.53,2.32,75.74,75.74,0,0,0,6.94,3.54,117.47,117.47,0,0,0,14.17,5.32,2.81,2.81,0,0,0,2.3-5.08Z" style="fill:#ffb573"></path><path d="M187.15,202c4.18-9.18,13.9-14.54,5.56-28.66-6.07.94-12.87,8.24-17.83,20.44,0,0-8,16.62-1.55,23.5s23.25,11.88,23.25,11.88a17.41,17.41,0,0,1,3.79-7.08L184.2,210.39S186.23,204,187.15,202Z" style="fill:#263238"></path><path d="M213.49,224.16l-2.31-1.54a3.22,3.22,0,0,0-3-.34L203.66,224a6,6,0,0,0-3.71,4.11l-.3,1.17c3.65,2.83,9.69,3.2,9.69,3.2l1.71.29a2.69,2.69,0,0,0,3.18-2.13l.62-3.38A3.1,3.1,0,0,0,213.49,224.16Z" style="fill:#ffb573"></path><path d="M218.69,141c-1.59,0-2.89,1.52-3.06,3.47a1.77,1.77,0,0,0-1.69.27,3.87,3.87,0,0,0-7.62.73h-1.47l-8.59.35,0,.5,8.6-.35h1.49a3.88,3.88,0,0,0,7.76-.25,2.85,2.85,0,0,0,0-.41,1.22,1.22,0,0,1,1.56-.27c.06,2.08,1.42,3.75,3.09,3.75s3.09-1.74,3.09-3.89S220.39,141,218.69,141Zm-8.5,8.11a3.4,3.4,0,1,1,3.39-3.39A3.4,3.4,0,0,1,210.19,149.11Zm8.5-.82c-1.43,0-2.6-1.52-2.6-3.39s1.17-3.4,2.6-3.4,2.59,1.53,2.59,3.4S220.12,148.29,218.69,148.29Z" style="fill:#263238"></path><path d="M218.69,141c-1.59,0-2.89,1.52-3.06,3.47a1.77,1.77,0,0,0-1.69.27,3.87,3.87,0,0,0-7.62.73h-1.47l-8.59.35,0,.5,8.6-.35h1.49a3.88,3.88,0,0,0,7.76-.25,2.85,2.85,0,0,0,0-.41,1.22,1.22,0,0,1,1.56-.27c.06,2.08,1.42,3.75,3.09,3.75s3.09-1.74,3.09-3.89S220.39,141,218.69,141Zm-8.5,8.11a3.4,3.4,0,1,1,3.39-3.39A3.4,3.4,0,0,1,210.19,149.11Zm8.5-.82c-1.43,0-2.6-1.52-2.6-3.39s1.17-3.4,2.6-3.4,2.59,1.53,2.59,3.4S220.12,148.29,218.69,148.29Z" style="fill:#fff;opacity:0.5"></path><path d="M193.39,151.43a6.15,6.15,0,0,0,3.74,3.27c2,.55,2.93-1.8,2.25-4.14-.61-2.11-2.42-4.93-4.42-4.42S192.36,149.37,193.39,151.43Z" style="fill:#ffb573"></path><path d="M199.61,155.48a1.85,1.85,0,1,1-1.85-1.85A1.84,1.84,0,0,1,199.61,155.48Z" style="fill:#407BFF"></path><path d="M199.61,155.48a1.85,1.85,0,1,1-1.85-1.85A1.84,1.84,0,0,1,199.61,155.48Z" style="fill:#fff;opacity:0.5"></path></g></svg>
